<?xml version="1.0" encoding="UTF-8"?><svg xmlns="http://www.w3.org/2000/svg" xmlns:xlink="http://www.w3.org/1999/xlink" height="407.2" preserveAspectRatio="xMidYMid meet" version="1.0" viewBox="42.6 14.7 202.9 407.2" width="202.9" zoomAndPan="magnify"><g><g id="change1_1"><path d="M223.42,421.92H64.58c-12.1,0-22-9.9-22-22V36.68c0-12.1,9.9-22,22-22h158.85c12.1,0,22,9.9,22,22v363.24 C245.42,412.02,235.52,421.92,223.42,421.92z" fill="#131313"/></g><radialGradient cx="143.821" cy="218.298" gradientTransform="matrix(.0111 -.9999 .5695 .00625 17.71 360.745)" gradientUnits="userSpaceOnUse" id="a" r="250.487" xlink:actuate="onLoad" xlink:show="other" xlink:type="simple" xmlns:xlink="http://www.w3.org/1999/xlink"><stop offset="0" stop-color="#fff"/><stop offset="1" stop-color="#f1f1f2" stop-opacity=".3"/></radialGradient><radialGradient cx="143.821" cy="218.298" gradientTransform="matrix(1.0039 0 0 1 -.77 0)" gradientUnits="userSpaceOnUse" id="b" r="159.213" xlink:actuate="onLoad" xlink:show="other" xlink:type="simple" xmlns:xlink="http://www.w3.org/1999/xlink"><stop offset="0" stop-color="#fff"/><stop offset="1" stop-color="#f1f1f2" stop-opacity="0"/></radialGradient><path d="M220.8,419.6H66.42c-11.98,0-21.79-9.8-21.79-21.79V38.78C44.64,26.8,54.44,17,66.42,17H220.8 c11.98,0,21.79,9.8,21.79,21.79v359.03C242.59,409.79,232.79,419.6,220.8,419.6z" fill="url(#a)" opacity=".8" stroke="url(#b)" stroke-miterlimit="10" stroke-width="1.515"/><g id="change2_2"><path d="M222.41,415.74H67.13c-10.67,0-19.4-8.73-19.4-19.4V37.17c0-10.67,8.73-19.4,19.4-19.4h155.28c10.67,0,19.4,8.73,19.4,19.4 v359.16C241.82,407.01,233.09,415.74,222.41,415.74z" fill="inherit"/></g><linearGradient gradientUnits="userSpaceOnUse" id="c" x1="49.029" x2="239.745" xlink:actuate="onLoad" xlink:show="other" xlink:type="simple" xmlns:xlink="http://www.w3.org/1999/xlink" y1="217.397" y2="217.397"><stop offset="0" stop-color="#231f20"/><stop offset="1" stop-color="#f1f1f2" stop-opacity=".4"/></linearGradient><path d="M220.99,415.48H67.79c-9.9,0-18-8.1-18-18V37.31c0-9.9,8.1-18,18-18h153.2c9.9,0,18,8.1,18,18v360.17 C238.99,407.38,230.89,415.48,220.99,415.48z" fill="none" stroke="url(#c)" stroke-miterlimit="10" stroke-width="1.512"/><g><g id="change2_1"><path d="M95.61,20.38v5.02c0,5.17,4.23,9.4,9.4,9.4h79.54c5.17,0,9.4-4.23,9.4-9.4v-5.02H95.61z" fill="inherit"/></g><linearGradient gradientUnits="userSpaceOnUse" id="d" x1="145.931" x2="145.931" xlink:actuate="onLoad" xlink:show="other" xlink:type="simple" xmlns:xlink="http://www.w3.org/1999/xlink" y1="29.418" y2="24.784"><stop offset="0" stop-color="#bbbdbf" stop-opacity="0"/><stop offset=".027" stop-color="#848689" stop-opacity=".059"/><stop offset=".076" stop-color="#545456" stop-opacity=".354"/><stop offset=".139" stop-color="#2b2829" stop-opacity=".727"/><stop offset=".633"/></linearGradient><path d="M159.07,29.42h-26.28c-0.84,0-1.53-0.69-1.53-1.53v-1.57c0-0.84,0.69-1.53,1.53-1.53h26.28 c0.84,0,1.53,0.69,1.53,1.53v1.57C160.6,28.73,159.91,29.42,159.07,29.42z" fill="url(#d)" opacity=".85"/><g><g id="change3_1"><circle cx="167.84" cy="27.1" fill="#0f2021" r="2.61"/></g><radialGradient cx="167.94" cy="26.425" gradientUnits="userSpaceOnUse" id="e" r=".874" xlink:actuate="onLoad" xlink:show="other" xlink:type="simple" xmlns:xlink="http://www.w3.org/1999/xlink"><stop offset=".366" stop-color="#516363"/><stop offset="1" stop-color="#516363" stop-opacity="0"/></radialGradient><ellipse cx="167.94" cy="26.43" fill="url(#e)" opacity=".75" rx=".77" ry=".97"/></g></g><g fill="#fff" id="change4_1"><path d="M200.3 30.62H201.49V34.51H200.3z" fill="inherit"/><path d="M198.53 31.34H199.72V34.51H198.53z" fill="inherit"/><path d="M196.75 32.21H197.94V34.52H196.75z" fill="inherit"/></g><path d="M206.24,27.07c-0.09,0.18-0.16,0.37-0.16,0.58c0,0.7,0.57,1.27,1.27,1.27c0.7,0,1.27-0.57,1.27-1.27 c0-0.21-0.06-0.4-0.16-0.58l-1.12,1.12L206.24,27.07z" fill="none"/><path d="M209.39,27.65c0,1.12-0.91,2.03-2.03,2.03c-1.12,0-2.03-0.91-2.03-2.03c0-0.42,0.16-0.79,0.38-1.11l-0.45-0.45 c-0.33,0.44-0.53,0.97-0.53,1.56c0,1.45,1.18,2.63,2.63,2.63c1.45,0,2.63-1.18,2.63-2.63c0-0.59-0.2-1.12-0.53-1.56l-0.45,0.45 C209.23,26.86,209.39,27.23,209.39,27.65z" fill="none"/><path d="M210.74,27.65c0,1.87-1.52,3.38-3.38,3.38c-1.87,0-3.38-1.52-3.38-3.38c0-0.79,0.29-1.52,0.75-2.09l-0.35-0.35 c-0.55,0.67-0.89,1.51-0.89,2.45c0,2.14,1.74,3.88,3.88,3.88c2.14,0,3.88-1.74,3.88-3.88c0-0.93-0.34-1.78-0.89-2.45L210,25.56 C210.46,26.14,210.74,26.86,210.74,27.65z" fill="none"/><g fill="#fff" id="change4_2"><path d="M207.73,31.94c0.79,0,1.48,0.39,1.92,0.97l0.49-0.49c-0.57-0.71-1.43-1.18-2.4-1.18s-1.84,0.47-2.4,1.18 l0.49,0.49C206.25,32.33,206.94,31.94,207.73,31.94z" fill="inherit"/><path d="M207.73,30.8c1.1,0,2.08,0.52,2.73,1.31l0.49-0.49c-0.78-0.92-1.92-1.51-3.21-1.51 c-1.29,0-2.44,0.59-3.21,1.51l0.49,0.49C205.65,31.31,206.63,30.8,207.73,30.8z" fill="inherit"/><path d="M207.73,33.17c0.45,0,0.83,0.26,1.02,0.64l0.49-0.49c-0.33-0.49-0.87-0.84-1.51-0.84 c-0.64,0-1.18,0.35-1.51,0.84l0.49,0.49C206.9,33.44,207.28,33.17,207.73,33.17z" fill="inherit"/><circle cx="207.73" cy="34.1" fill="inherit" r=".41"/></g><g><g id="change4_3"><path d="M223.13 31.93H223.74V33.5H223.13z" fill="#fff"/></g><path d="M214.05 31.02H223.17000000000002V34.43H214.05z" fill="none" stroke="#fff" stroke-miterlimit="10" stroke-width=".172"/><g id="change4_4"><path d="M214.29 31.29H222.07999999999998V34.15H214.29z" fill="#fff"/></g></g><text fill="#fff" font-family="ArialMT" font-size="6.356" transform="translate(62.67 34.736)">1:21 PM</text></g></svg>